<svg width="75" height="16" viewBox="0 0 75 16" fill="none" xmlns="http://www.w3.org/2000/svg">
<path opacity="0.5" d="M17.84 11.48C17.84 8.58 15.88 7.92 12.76 7.64L5.14 6.9C3.06 6.68 1.9 6.4 1.9 4.84C1.9 3.22 2.92 2.62 8.06 2.62C10.76 2.62 14.64 3 16.94 3.46L17.24 2.02C14.84 1.52 11.06 1.14 8.38 1.14C2.28 1.14 0.18 2.18 0.18 4.88C0.18 7.38 2 8.12 5.22 8.4L13.08 9.16C15.08 9.4 16.1 9.68 16.1 11.44C16.1 13.08 15.12 13.74 9.86 13.74C6.94 13.74 3.12 13.32 0.66 12.8L0.38 14.3C2.7 14.8 6.48 15.22 9.5 15.22C16 15.22 17.84 14.16 17.84 11.48ZM20.16 10C20.16 13.74 22.72 15.2 28.86 15.2C31.48 15.2 33.52 14.9 35.06 14.52L34.72 13.12C33.4 13.42 31.52 13.74 28.66 13.74C23.76 13.74 21.86 12.84 21.86 10C21.86 7.18 23.76 6.3 28.66 6.3C31.52 6.3 33.4 6.62 34.72 6.92L35.06 5.5C33.52 5.14 31.34 4.82 28.86 4.82C22.72 4.82 20.16 6.28 20.16 10ZM37.7866 15H39.4866V8.36C42.2266 6.9 44.5466 6.36 47.0666 6.36V4.82C44.0266 4.82 41.4666 5.92 39.4266 7.18L39.2466 5.04H37.7866V15ZM48.1678 10.02C48.1678 13.62 50.8078 15.22 56.5478 15.22C62.3078 15.22 64.9478 13.62 64.9478 10.02C64.9478 6.4 62.3078 4.82 56.5478 4.82C50.8078 4.82 48.1678 6.4 48.1678 10.02ZM49.8678 10.02C49.8678 7.38 51.6678 6.28 56.5478 6.28C61.4478 6.28 63.2478 7.38 63.2478 10.02C63.2478 12.68 61.4478 13.74 56.5478 13.74C51.6678 13.74 49.8678 12.68 49.8678 10.02ZM69.3498 -1.19209e-06H67.6498V15H69.3498V-1.19209e-06ZM74.1545 -1.19209e-06H72.4545V15H74.1545V-1.19209e-06Z" fill="white"/>
</svg>
